<svg width="176" height="46" viewBox="0 0 176 46" fill="none" xmlns="http://www.w3.org/2000/svg">
<path d="M30.946 15.586C32.0867 15.586 33.0823 15.818 33.933 16.282C34.803 16.746 35.47 17.355 35.934 18.109V15.818H40.893V31.971C40.893 33.4597 40.5933 34.8033 39.994 36.002C39.414 37.22 38.515 38.1867 37.297 38.902C36.0983 39.6173 34.6 39.975 32.802 39.975C30.4047 39.975 28.4617 39.4047 26.973 38.264C25.4843 37.1427 24.6337 35.6153 24.421 33.682H29.322C29.4767 34.3007 29.844 34.784 30.424 35.132C31.004 35.4993 31.7193 35.683 32.57 35.683C33.5947 35.683 34.4067 35.3833 35.006 34.784C35.6247 34.204 35.934 33.2663 35.934 31.971V29.68C35.4507 30.434 34.7837 31.0527 33.933 31.536C33.0823 32 32.0867 32.232 30.946 32.232C29.612 32.232 28.4037 31.8937 27.321 31.217C26.2383 30.521 25.378 29.5447 24.74 28.288C24.1213 27.012 23.812 25.5427 23.812 23.88C23.812 22.2173 24.1213 20.7577 24.74 19.501C25.378 18.2443 26.2383 17.2777 27.321 16.601C28.4037 15.9243 29.612 15.586 30.946 15.586ZM35.934 23.909C35.934 22.6717 35.586 21.6953 34.89 20.98C34.2133 20.2647 33.382 19.907 32.396 19.907C31.41 19.907 30.569 20.2647 29.873 20.98C29.1963 21.676 28.858 22.6427 28.858 23.88C28.858 25.1173 29.1963 26.1033 29.873 26.838C30.569 27.5533 31.41 27.911 32.396 27.911C33.382 27.911 34.2133 27.5533 34.89 26.838C35.586 26.1227 35.934 25.1463 35.934 23.909ZM49.4396 18.515C50.0196 17.6257 50.7446 16.9297 51.6146 16.427C52.4846 15.905 53.4513 15.644 54.5146 15.644V20.893H53.1516C51.9143 20.893 50.9863 21.1637 50.3676 21.705C49.749 22.227 49.4396 23.155 49.4396 24.489V32H44.4806V15.818H49.4396V18.515ZM59.3789 14.136C58.5089 14.136 57.7936 13.8847 57.2329 13.382C56.6916 12.86 56.4209 12.222 56.4209 11.468C56.4209 10.6947 56.6916 10.0567 57.2329 9.554C57.7936 9.032 58.5089 8.771 59.3789 8.771C60.2296 8.771 60.9256 9.032 61.4669 9.554C62.0276 10.0567 62.3079 10.6947 62.3079 11.468C62.3079 12.222 62.0276 12.86 61.4669 13.382C60.9256 13.8847 60.2296 14.136 59.3789 14.136ZM61.8439 15.818V32H56.8849V15.818H61.8439ZM64.4516 23.909C64.4516 22.227 64.79 20.7577 65.4666 19.501C66.1626 18.2443 67.1196 17.2777 68.3376 16.601C69.575 15.9243 70.9863 15.586 72.5716 15.586C74.6016 15.586 76.2933 16.1177 77.6466 17.181C79.0193 18.2443 79.9183 19.7427 80.3436 21.676H75.0656C74.621 20.4387 73.7606 19.82 72.4846 19.82C71.576 19.82 70.851 20.1777 70.3096 20.893C69.7683 21.589 69.4976 22.5943 69.4976 23.909C69.4976 25.2237 69.7683 26.2387 70.3096 26.954C70.851 27.65 71.576 27.998 72.4846 27.998C73.7606 27.998 74.621 27.3793 75.0656 26.142H80.3436C79.9183 28.0367 79.0193 29.5253 77.6466 30.608C76.274 31.6907 74.5823 32.232 72.5716 32.232C70.9863 32.232 69.575 31.8937 68.3376 31.217C67.1196 30.5403 66.1626 29.5737 65.4666 28.317C64.79 27.0603 64.4516 25.591 64.4516 23.909Z" fill="#D9E82D"/>
<path d="M97.6412 11.642V15.615H92.2472V32H87.2882V15.615H81.8942V11.642H97.6412ZM105.089 18.515C105.669 17.6257 106.394 16.9297 107.264 16.427C108.134 15.905 109.101 15.644 110.164 15.644V20.893H108.801C107.564 20.893 106.636 21.1637 106.017 21.705C105.398 22.227 105.089 23.155 105.089 24.489V32H100.13V15.818H105.089V18.515ZM111.548 23.88C111.548 22.2173 111.858 20.7577 112.476 19.501C113.114 18.2443 113.975 17.2777 115.057 16.601C116.14 15.9243 117.348 15.586 118.682 15.586C119.823 15.586 120.819 15.818 121.669 16.282C122.539 16.746 123.206 17.355 123.67 18.109V15.818H128.629V32H123.67V29.709C123.187 30.463 122.51 31.072 121.64 31.536C120.79 32 119.794 32.232 118.653 32.232C117.339 32.232 116.14 31.8937 115.057 31.217C113.975 30.521 113.114 29.5447 112.476 28.288C111.858 27.012 111.548 25.5427 111.548 23.88ZM123.67 23.909C123.67 22.6717 123.322 21.6953 122.626 20.98C121.95 20.2647 121.118 19.907 120.132 19.907C119.146 19.907 118.305 20.2647 117.609 20.98C116.933 21.676 116.594 22.6427 116.594 23.88C116.594 25.1173 116.933 26.1033 117.609 26.838C118.305 27.5533 119.146 27.911 120.132 27.911C121.118 27.911 121.95 27.5533 122.626 26.838C123.322 26.1227 123.67 25.1463 123.67 23.909ZM131.231 23.909C131.231 22.227 131.569 20.7577 132.246 19.501C132.942 18.2443 133.899 17.2777 135.117 16.601C136.354 15.9243 137.766 15.586 139.351 15.586C141.381 15.586 143.073 16.1177 144.426 17.181C145.799 18.2443 146.698 19.7427 147.123 21.676H141.845C141.4 20.4387 140.54 19.82 139.264 19.82C138.355 19.82 137.63 20.1777 137.089 20.893C136.548 21.589 136.277 22.5943 136.277 23.909C136.277 25.2237 136.548 26.2387 137.089 26.954C137.63 27.65 138.355 27.998 139.264 27.998C140.54 27.998 141.4 27.3793 141.845 26.142H147.123C146.698 28.0367 145.799 29.5253 144.426 30.608C143.053 31.6907 141.362 32.232 139.351 32.232C137.766 32.232 136.354 31.8937 135.117 31.217C133.899 30.5403 132.942 29.5737 132.246 28.317C131.569 27.0603 131.231 25.591 131.231 23.909ZM159.665 32L154.735 25.214V32H149.776V10.54H154.735V22.401L159.636 15.818H165.755L159.027 23.938L165.813 32H159.665Z" fill="white"/>
<path d="M12.4071 17.5694C13.9416 20.8113 13.3718 21.2055 19.1865 20.4408C17.9035 17.1846 16.5499 14.1496 16.0434 13.0928C14.0682 8.97129 10.9415 3.41172 4.34846 3.78644C7.67832 7.14341 11.6979 16.071 12.4071 17.5694Z" fill="#D9E82D"/>
<rect width="4.87259" height="16.437" rx="2.4363" transform="matrix(-0.918048 0.39647 -0.391997 -0.919966 23.3367 29.8654)" fill="#D9E82D"/>
<path d="M2.87689 22.6642L21.6992 13.3776L22.3164 19.0332L3.4941 28.3199L2.87689 22.6642Z" fill="white"/>
<rect width="5.38128" height="25.3966" rx="2.69064" transform="matrix(0.929734 0.368231 -0.363152 0.93173 9.22284 6.02817)" fill="#D9E82D"/>
</svg>
