<svg width="55" height="53" viewBox="0 0 55 53" fill="none" xmlns="http://www.w3.org/2000/svg">
<g clip-path="url(#clip0_222_164)">
<ellipse cx="27.5" cy="26.1214" rx="19.9658" ry="23.85" fill="white"/>
<path fill-rule="evenodd" clip-rule="evenodd" d="M27.5 53C12.3114 53 0 41.1363 0 26.5C0 11.8637 12.3114 0 27.5 0C42.6886 0 55 11.8637 55 26.5C55 41.1363 42.6886 53 27.5 53ZM27.9813 38.632C29.7481 39.8096 31.9894 40.5102 34.4163 40.5102C35.0195 40.5102 35.6159 40.4672 36.202 40.3827C36.4031 40.4622 36.5973 40.5599 36.8362 40.6924C37.3519 40.9839 38.0411 41.4311 38.8988 42.034C39.6017 42.5292 40.5969 42.0505 40.5969 41.2174V38.7977C40.9578 38.5724 41.2981 38.3289 41.6195 38.0656C43.5617 36.4789 44.6875 34.3092 44.6875 31.9822C44.6875 30.4502 44.2063 29.0175 43.3606 27.7803C43.094 28.6589 42.7329 29.5082 42.283 30.3143C42.4617 30.8493 42.5563 31.4075 42.5563 31.9822C42.5563 33.6947 41.7175 35.3112 40.2325 36.5236C39.8494 36.8355 39.4368 37.1122 39.0002 37.3501C38.8384 37.4381 38.7037 37.5659 38.6098 37.7204C38.516 37.8749 38.4662 38.0505 38.4656 38.2296V39.2631C37.4464 38.6337 36.7469 38.3372 36.2141 38.3372C36.1542 38.3374 36.0944 38.3424 36.0353 38.3521C34.542 38.5928 33.0112 38.4964 31.5631 38.0706C30.3903 38.3641 29.1918 38.5526 27.983 38.6337L27.9813 38.632ZM15.1491 33.7925C15.7158 34.2546 16.3154 34.678 16.9434 35.0595V39.1869C16.9434 40.2303 18.1895 40.8266 19.0678 40.2071C21.4912 38.5012 23.1756 37.5373 23.5967 37.4412C24.5695 37.5903 25.563 37.6648 26.5667 37.6648C35.5042 37.6648 42.8227 31.6907 42.8227 24.216C42.8227 16.7397 35.5025 10.7656 26.5667 10.7656C17.6309 10.7656 10.3125 16.7397 10.3125 24.2144C10.3125 27.8747 12.0828 31.2882 15.1491 33.7925ZM23.6552 34.8955C22.7906 34.8955 21.5273 35.4835 19.6092 36.724V34.344C19.6084 34.1199 19.5459 33.9001 19.4281 33.7069C19.3104 33.5137 19.1416 33.3541 18.9389 33.2443C18.2106 32.8471 17.5224 32.3852 16.8833 31.8646C14.3859 29.8291 12.9766 27.1062 12.9766 24.2144C12.9766 18.2353 19.0197 13.303 26.5667 13.303C34.1155 13.303 40.1569 18.2353 40.1569 24.2144C40.1569 30.1934 34.1155 35.1274 26.5667 35.1274C25.6558 35.1274 24.7569 35.0545 23.8786 34.9121C23.8047 34.9006 23.73 34.8951 23.6552 34.8955ZM19.6384 26.7534C20.8158 26.7534 21.7697 25.8425 21.7697 24.7228C21.7697 23.6016 20.8158 22.6923 19.6384 22.6923C18.4611 22.6923 17.5072 23.6016 17.5072 24.7228C17.5072 25.8441 18.4611 26.7534 19.6384 26.7534ZM26.5667 26.7534C27.7441 26.7534 28.698 25.8425 28.698 24.7228C28.698 23.6016 27.7441 22.6923 26.5667 22.6923C25.3894 22.6923 24.4355 23.6016 24.4355 24.7228C24.4355 25.8441 25.3894 26.7534 26.5667 26.7534ZM33.495 26.7534C34.6723 26.7534 35.6263 25.8425 35.6263 24.7228C35.6263 23.6016 34.6723 22.6923 33.495 22.6923C32.3177 22.6923 31.3638 23.6016 31.3638 24.7228C31.3638 25.8441 32.3177 26.7534 33.495 26.7534Z" fill="#94A100"/>
</g>
<defs>
<clipPath id="clip0_222_164">
<rect width="55" height="53" fill="white"/>
</clipPath>
</defs>
</svg>
